<svg width="28" height="20" viewBox="0 0 28 20" fill="none" xmlns="http://www.w3.org/2000/svg">
<path d="M26.7156 20H1.2844C0.575413 20 0 19.4105 0 18.6842C0 17.9579 0.575413 17.3684 1.2844 17.3684H26.7156C27.4246 17.3684 28 17.9579 28 18.6842C28 19.4105 27.4246 20 26.7156 20ZM26.7156 11.3158H1.2844C0.575413 11.3158 0 10.7263 0 10C0 9.27368 0.575413 8.68421 1.2844 8.68421H26.7156C27.4246 8.68421 28 9.27368 28 10C28 10.7263 27.4246 11.3158 26.7156 11.3158ZM26.7156 2.63158H1.2844C0.575413 2.63158 0 2.04211 0 1.31579C0 0.589474 0.575413 0 1.2844 0H26.7156C27.4246 0 28 0.589474 28 1.31579C28 2.04211 27.4246 2.63158 26.7156 2.63158Z" fill="white"/>
</svg>
